{"title":"Mindscape.2013.SWESUB.BRRip.XviD.MP3-Lunatic","uid":10465004,"size":609269894,"categoryP":"video","categoryS":"movies","magnet":"?xt=urn:btih:5111d0a616461945c8655c9c69323a5478bce06b&amp;dn=Mindscape.2013.SWESUB.BRRip.XviD.MP3-Lunatic&amp;tr=udp%3A%2F%2Ftracker.openbittorrent.com%3A80&amp;tr=udp%3A%2F%2Fopen.demonii.com%3A1337&amp;tr=udp%3A%2F%2Ftracker.coppersurfer.tk%3A6969&amp;tr=udp%3A%2F%2Fexodus.desync.com%3A6969","seeders":7,"leechers":0,"uploader":"Swesubtv","files":-1,"time":1404178439,"description":"Original: Mindscape.2013.BRRip.XviD.MP3-RARBG\n\n\n-General-\n\nFormat                                   : AVI\nFormat/Info                              : Audio Video Interleave\nFile size                                : 581 MiB\nDuration                                 : 1h 38mn\nOverall bit rate                         : 821 Kbps\n\n-Video-\n\nFormat                                   : AVC\nFormat/Info                              : Advanced Video Codec\nFormat profile                           : &lt;a class=&quot;__cf_email__&quot; href=&quot;/cdn-cgi/l/email-protection&quot; data-cfemail=&quot;2068494748606c130e10&quot;&gt;[email&amp;#160;protected]&lt;/a&gt;&lt;script cf-hash='f9e31' type=&quot;text/javascript&quot;&gt;\n/* &lt;![CDATA[ */!function(){try{var t=&quot;currentScript&quot;in document?document.currentScript:function(){for(var t=document.getElementsByTagName(&quot;script&quot;),e=t.length;e--;)if(t[e].getAttribute(&quot;cf-hash&quot;))return t[e]}();if(t&amp;&amp;t.previousSibling){var e,r,n,i,c=t.previousSibling,a=c.getAttribute(&quot;data-cfemail&quot;);if(a){for(e=&quot;&quot;,r=parseInt(a.substr(0,2),16),n=2;a.length-n;n+=2)i=parseInt(a.substr(n,2),16)^r,e+=String.fromCharCode(i);e=document.createTextNode(e),c.parentNode.replaceChild(e,c)}}}catch(u){}}();/* ]]&gt; */&lt;/script&gt;\nFormat settings, CABAC                   : Yes\nFormat settings, ReFrames                : 4 frames\nCodec ID                                 : H264\nDuration                                 : 1h 38mn\nBit rate                                 : 616 Kbps\nWidth                                    : 720 pixels\nHeight                                   : 300 pixels\nDisplay aspect ratio                     : 2.40:1\nFrame rate                               : 23.976 fps\nColor space                              : YUV\nChroma subsampling                       : 4:2:0\nBit depth                                : 8 bits\nScan type                                : Progressive\nBits/(Pixel*Frame)                       : 0.119\nStream size                              : 436 MiB (75%)\nWriting library                          : x264 core 123 r2189 35cf912\n\n\n-Audio-\n\nFormat                                   : MPEG Audio\nFormat version                           : Version 1\nFormat profile                           : Layer 3\nMode                                     : Joint stereo\nMode extension                           : MS Stereo\nCodec ID                                 : 55\nCodec ID/Hint                            : MP3\nDuration                                 : 56mn 52s\nSource duration                          : 1h 38mn\nBit rate mode                            : Constant\nBit rate                                 : 192 Kbps\nChannel(s)                               : 2 channels\nSampling rate                            : 48.0 KHz\nCompression mode                         : Lossy\nStream size                              : 136 MiB (23%)\nAlignment                                : Aligned on interleaves\nInterleave, duration                     : 24 ms (0.58 video frame)\n\n\n\nwww.swesub.tv","torrent":{"xt":"urn:btih:5111d0a616461945c8655c9c69323a5478bce06b","amp;dn":"Mindscape.2013.SWESUB.BRRip.XviD.MP3-Lunatic","amp;tr":["udp%3A%2F%2Ftracker.openbittorrent.com%3A80","udp%3A%2F%2Fopen.demonii.com%3A1337","udp%3A%2F%2Ftracker.coppersurfer.tk%3A6969","udp%3A%2F%2Fexodus.desync.com%3A6969"],"infoHash":"5111d0a616461945c8655c9c69323a5478bce06b","infoHashBuffer":{"type":"Buffer","data":[81,17,208,166,22,70,25,69,200,101,92,156,105,50,58,84,120,188,224,107]},"announce":[],"urlList":[]}}